<svg xmlns="http://www.w3.org/2000/svg" width="1200" height="1200">
<path d="M0 0 C8.79688806 0.77503693 17.40411151 2.5009543 26.06640625 4.16015625 C27.71258488 4.47290812 29.358821 4.7853575 31.00511169 5.09751892 C35.31117494 5.91484616 39.61645107 6.73624713 43.92156982 7.55853271 C48.3254955 8.39893148 52.73016204 9.2354285 57.13476562 10.07226562 C65.75723541 11.71105116 74.37887663 13.35414613 83 15 C81.97671442 23.56694145 81.97671442 23.56694145 81.15893555 27.06542969 C80.99704239 27.76543594 80.83514923 28.4654422 80.66835022 29.18666077 C80.49291183 29.92428146 80.31747345 30.66190216 80.13671875 31.421875 C79.85525246 32.62299171 79.85525246 32.62299171 79.56809998 33.84837341 C78.947364 36.48374644 78.31852649 39.1170729 77.6875 41.75 C77.46858093 42.66649323 77.24966187 43.58298645 77.02410889 44.5272522 C67.06101167 86.10793345 55.03655602 127.05457921 41.5625 167.625 C41.31701416 168.36540527 41.07152832 169.10581055 40.81860352 169.86865234 C37.77889048 179.01140286 34.54839606 188.03979359 31 197 C31.6705542 196.81300537 32.3411084 196.62601074 33.03198242 196.43334961 C36.0808039 195.59001369 39.13397078 194.76361978 42.1875 193.9375 C43.24259766 193.64294922 44.29769531 193.34839844 45.38476562 193.04492188 C46.40634766 192.77099609 47.42792969 192.49707031 48.48046875 192.21484375 C49.41785889 191.95823975 50.35524902 191.70163574 51.32104492 191.43725586 C54.32363303 190.947177 56.14842938 190.91779916 59 192 C60.41870117 194.07177734 60.41870117 194.07177734 61.54296875 196.8359375 C61.97150146 197.86565674 62.40003418 198.89537598 62.84155273 199.95629883 C63.28571533 201.08447021 63.72987793 202.2126416 64.1875 203.375 C64.66453369 204.54893311 65.14156738 205.72286621 65.63305664 206.93237305 C67.11520314 210.61212587 68.56238815 214.30264821 70 218 C70.42474609 219.08265137 70.84949219 220.16530273 71.28710938 221.28076172 C90.26030589 269.97310268 104.91460162 321.1633308 112 373 C112.1038501 373.74121094 112.2077002 374.48242188 112.31469727 375.24609375 C112.82056927 379.02043885 113.11537899 382.69271291 113.0625 386.5 C113.04896484 387.78390625 113.04896484 387.78390625 113.03515625 389.09375 C113.02355469 389.7228125 113.01195312 390.351875 113 391 C108.42540339 393.03250981 103.92205967 394.73606109 99.1184082 396.17651367 C98.47032196 396.37202316 97.82223572 396.56753265 97.1545105 396.76896667 C95.03784646 397.40620613 92.91942896 398.03735865 90.80078125 398.66796875 C89.31815028 399.11188032 87.8355819 399.55600096 86.35307312 400.00032043 C83.25826315 400.92675603 80.16253923 401.85005661 77.06616211 402.77124023 C73.0997532 403.95163161 69.13603595 405.14079491 65.17298603 406.33240795 C62.11752905 407.24990066 59.06056459 408.16228421 56.00313377 409.07317543 C54.5406081 409.50966702 53.07858756 409.94785486 51.61709023 410.38777733 C49.57738964 411.00101298 47.53572761 411.6072226 45.4934082 412.21166992 C43.75303032 412.73104378 43.75303032 412.73104378 41.97749329 413.26091003 C39 414 39 414 35 414 C34.91548584 413.13874512 34.83097168 412.27749023 34.74389648 411.39013672 C30.2202499 366.36696662 21.03940372 322.47855422 7.95849609 279.1796875 C7.33285086 277.10418991 6.71559422 275.02613981 6.10791016 272.9453125 C5.84155762 272.03523438 5.57520508 271.12515625 5.30078125 270.1875 C4.95720581 269.00220703 4.95720581 269.00220703 4.60668945 267.79296875 C4.14752507 265.99980522 4.14752507 265.99980522 3 265 C2.47792969 266.08490723 1.95585938 267.16981445 1.41796875 268.28759766 C-18.68405678 310.0088975 -39.90817917 350.63851294 -66 389 C-66.38945801 389.57717773 -66.77891602 390.15435547 -67.18017578 390.74902344 C-77.50002948 406.03503205 -88.39279241 420.89141445 -99.890625 435.3125 C-102.73356366 438.93461444 -104.24967074 440.91973227 -104.25878906 445.50878906 C-104.26824554 446.87732025 -104.26824554 446.87732025 -104.27789307 448.27349854 C-104.2738446 449.26090027 -104.26979614 450.248302 -104.265625 451.265625 C-104.26849518 452.80401031 -104.26849518 452.80401031 -104.27142334 454.37347412 C-104.27278616 456.55237065 -104.26908302 458.73127526 -104.26074219 460.91015625 C-104.25017527 464.19550651 -104.2605655 467.48029331 -104.2734375 470.765625 C-105.2444111 490.74214234 -105.2444111 490.74214234 -99 509 C-91.48033737 513.42333096 -80.32630703 512.16000984 -71.8984375 512.16796875 C-70.66259918 512.17129715 -69.42676086 512.17462555 -68.1534729 512.17805481 C-65.55316539 512.18309612 -62.95285146 512.185464 -60.35253906 512.18530273 C-56.38075158 512.18749682 -52.40923872 512.20570335 -48.4375 512.22460938 C-45.90364678 512.22754238 -43.36979224 512.2295278 -40.8359375 512.23046875 C-39.65349457 512.23765427 -38.47105164 512.24483978 -37.2527771 512.25224304 C-31.42638851 512.23611713 -26.48931626 511.99404592 -21 510 C-20.01 509.67 -19.02 509.34 -18 509 C-16.8974827 506.83378132 -16.8974827 506.83378132 -16 504 C-15.51660156 502.77539062 -15.03320312 501.55078125 -14.53515625 500.2890625 C-4.72418985 474.11159325 -7.19879821 441.55501278 -6 414 C-1.48605211 414.76573366 1.10422203 416.23263439 4.875 418.875 C21.06370688 429.67406812 39.07774213 436.55143576 57.59423828 442.21313477 C60.1123385 443.03674315 62.55076873 443.99144486 65 445 C65.31605748 455.18909109 64.35276521 465.13994825 63.25 475.25 C63.15974548 476.08837402 63.06949097 476.92674805 62.97650146 477.79052734 C54.72627668 553.97322265 54.72627668 553.97322265 27.8203125 576.9296875 C9.07340137 590.69127046 -13.26568294 590.15887436 -35.45703125 590.16796875 C-37.33151778 590.17119357 -39.20600407 590.17455849 -41.08049011 590.17805481 C-44.99792054 590.18401098 -48.91532904 590.18589856 -52.83276367 590.18530273 C-56.79960724 590.18522178 -60.76633457 590.19211942 -64.7331543 590.20581055 C-144.11675568 590.47561742 -144.11675568 590.47561742 -164.04296875 571.21484375 C-175.72023513 557.99925485 -178.99645113 541.82994144 -182 525 C-185.10040399 525 -186.46392072 526.84904646 -188.8125 528.8125 C-189.81023437 529.64136719 -190.80796875 530.47023438 -191.8359375 531.32421875 C-193.87573608 533.04118504 -195.89696797 534.77552861 -197.9140625 536.51953125 C-206.84406357 544.21502313 -216.21149475 551.2378754 -225.67480469 558.26220703 C-228.85377446 560.63808973 -231.99091386 563.06545257 -235.125 565.5 C-237.08201493 567.00171968 -239.04025354 568.50184672 -241 570 C-241.93585938 570.72574219 -242.87171875 571.45148437 -243.8359375 572.19921875 C-245.15464844 573.18341797 -245.15464844 573.18341797 -246.5 574.1875 C-247.62921875 575.04408203 -247.62921875 575.04408203 -248.78125 575.91796875 C-251 577 -251 577 -253.5703125 576.9296875 C-256.59692912 575.77159304 -257.50344856 574.56909463 -259.375 571.9375 C-270.98283404 556.64913322 -285.35979737 542.06626442 -300.02734375 529.6875 C-303.63295955 526.60309203 -307.09219469 523.35091236 -310.58203125 520.13671875 C-313.0028246 517.9003945 -313.0028246 517.9003945 -316 516 C-315.62752712 513.63051145 -315.40604297 512.34807594 -313.55151367 510.75830078 C-312.92994385 510.40751465 -312.30837402 510.05672852 -311.66796875 509.6953125 C-310.60908447 509.07861694 -310.60908447 509.07861694 -309.52880859 508.44946289 C-308.75617676 508.01239014 -307.98354492 507.57531738 -307.1875 507.125 C-285.75405396 494.51544197 -265.94779081 479.24370728 -246.77636719 463.45605469 C-245.19567002 462.16038703 -243.60257855 460.87987367 -242.0078125 459.6015625 C-235.32306701 454.23439004 -229.02715929 448.52579603 -222.77832031 442.66503906 C-220.88611398 440.89336866 -218.98668037 439.12969453 -217.0859375 437.3671875 C-215.76549606 436.14076381 -214.44518113 434.9142039 -213.125 433.6875 C-212.51881836 433.12522705 -211.91263672 432.5629541 -211.28808594 431.98364258 C-205.82025919 426.88698619 -200.37124811 421.74148058 -195.5 416.0625 C-192 412 -192 412 -190.30741781 410.45171928 C-185.40655557 405.64566017 -184.18463168 402.10407122 -184.07025772 395.2986269 C-184.09500614 393.62350922 -184.09500614 393.62350922 -184.12025452 391.91455078 C-184.11018999 390.71123454 -184.10012546 389.5079183 -184.08975595 388.26813793 C-184.06894219 384.94455762 -184.07927508 381.62376056 -184.10299766 378.30037904 C-184.12094983 374.71076339 -184.09841112 371.12136996 -184.08087158 367.53178406 C-184.05601474 361.31830505 -184.05662544 355.10525093 -184.07469368 348.89175415 C-184.10077977 339.90825127 -184.08820922 330.92512698 -184.06630235 321.9416281 C-184.03180282 307.365498 -184.02842476 292.78953428 -184.04467773 278.21337891 C-184.06039613 264.05676136 -184.06142044 249.90026809 -184.04272461 235.74365234 C-184.04157668 234.87056443 -184.04042875 233.99747651 -184.03924603 233.09793139 C-184.0333965 228.71776323 -184.02725852 224.33759553 -184.02097714 219.95742798 C-183.96926653 183.63819581 -183.97383242 147.31927594 -184 111 C-157.93 111 -131.86 111 -105 111 C-104.67 170.4 -104.34 229.8 -104 291 C-56.24770814 201.86238853 -23.95591045 108.45377766 -2.71191406 9.68920898 C-2.49631836 8.68962158 -2.28072266 7.69003418 -2.05859375 6.66015625 C-1.87611084 5.80043213 -1.69362793 4.94070801 -1.50561523 4.05493164 C-1 2 -1 2 0 0 Z " fill="#EC5CB5" transform="translate(622,139)"/>
<path d="M0 0 C2.0703125 1.984375 2.0703125 1.984375 4.125 4.75 C7.42436675 9.02492702 10.80600239 13.06261193 14.5 17 C18.79157816 21.60804212 22.80425964 26.37801955 26.75390625 31.28515625 C29.0883059 34.10673495 31.51990598 36.80590712 34 39.5 C38.16508171 44.02726273 42.09757219 48.6925366 45.94921875 53.48828125 C47.75936916 55.70528452 49.63644424 57.82199613 51.5625 59.9375 C54 63 54 63 54 67 C39.30562513 73.32957145 24.53684087 79.02697753 9.3125 83.9375 C8.26693939 84.27728378 8.26693939 84.27728378 7.20025635 84.62393188 C-2.79523451 87.8590842 -12.7658042 90.44145105 -23 93 C-23 121.38 -23 149.76 -23 179 C-1.55 179 19.9 179 42 179 C42 206.06 42 233.12 42 261 C20.55 261 -0.9 261 -23 261 C-21.13307403 265.66731494 -20.11340146 267.24134507 -16.67578125 270.58203125 C-15.81146484 271.43216797 -14.94714844 272.28230469 -14.05664062 273.15820312 C-13.15107422 274.03412109 -12.24550781 274.91003906 -11.3125 275.8125 C-5.91177389 281.07968088 -0.59279334 286.31941491 4.31274414 292.05444336 C7.386892 295.59921029 10.64466406 298.97313148 13.875 302.375 C22.20241815 311.19181734 30.35099545 320.01626459 37.859375 329.5546875 C40.04703405 332.05372868 42.34994593 334.00782649 45 336 C45.0402832 335.39518799 45.08056641 334.79037598 45.12207031 334.16723633 C45.73022943 326.35267989 47.01566109 318.69756816 48.35464478 310.98284912 C51.07827745 295.17001176 53.12209696 279.33013591 54.8125 263.375 C54.96966492 261.89197891 54.96966492 261.89197891 55.13000488 260.3789978 C56.09493402 251.21054811 57.05836523 242.04316032 57.76049805 232.85009766 C58 231 58 231 59 229 C66.6756064 229.51000263 73.87351941 231.00848088 81.31640625 232.90625 C82.45407944 233.19101196 83.59175262 233.47577393 84.76390076 233.76916504 C87.14886461 234.36765835 89.53297629 234.9695569 91.91625977 235.57470703 C95.58082426 236.50465008 99.24813969 237.42305832 102.91601562 238.33984375 C105.23714773 238.92380957 107.55811737 239.50842163 109.87890625 240.09375 C110.97981094 240.36981079 112.08071564 240.64587158 113.21498108 240.93029785 C114.22370773 241.1872644 115.23243439 241.44423096 116.27172852 241.70898438 C117.16312027 241.93469116 118.05451202 242.16039795 118.97291565 242.39294434 C121 243 121 243 122 244 C122.88036475 254.14815483 121.27677787 264.64990284 120.3125 274.75 C120.22352448 275.69073364 120.13454895 276.63146729 120.0428772 277.60070801 C114.1061779 339.9777289 106.95159649 408.79553846 75 464 C71.01127162 463.38952197 67.9466517 462.12855191 64.37890625 460.26171875 C63.28868164 459.69437012 62.19845703 459.12702148 61.07519531 458.54248047 C59.91600586 457.93033691 58.75681641 457.31819336 57.5625 456.6875 C56.35661175 456.05583451 55.15055517 455.42449026 53.94433594 454.79345703 C40.51261851 447.74920185 27.1451035 440.56731634 14 433 C14.55424496 427.08805375 16.98330866 422.31511146 19.4375 417 C23.67218332 407.55631569 27.2409157 397.9992478 30.5 388.1875 C30.71300751 387.55287842 30.92601501 386.91825684 31.14547729 386.2644043 C33.60299388 378.91317455 35.73412803 371.65387801 37 364 C30.31243744 372.05918178 23.63316779 380.12020612 17.1875 388.375 C16.30469581 389.5013086 15.42188348 390.62761081 14.5390625 391.75390625 C13.26254681 393.38349036 11.98856808 395.01477241 10.72167969 396.65185547 C9.51116149 398.21258943 8.28710591 399.76279513 7.0625 401.3125 C6.37285156 402.19550781 5.68320312 403.07851563 4.97265625 403.98828125 C2.92087129 406.08069562 1.86560955 406.66022974 -1 407 C-1.42667969 406.1234375 -1.85335937 405.246875 -2.29296875 404.34375 C-8.53471136 391.68009076 -15.25627992 379.44994476 -22 367 C-22.33 452.14 -22.66 537.28 -23 625 C-48.74 625 -74.48 625 -101 625 C-101.33 550.09 -101.66 475.18 -102 398 C-106.95 409.55 -111.9 421.1 -117 433 C-120.91473126 441.38870985 -124.84868536 449.73107739 -129 458 C-129.52835449 459.05396973 -130.05670898 460.10793945 -130.60107422 461.19384766 C-140.36013161 480.55264271 -151.01396719 498.86026709 -163.81640625 516.36621094 C-164.79340796 517.71482798 -165.73048059 519.09227522 -166.65625 520.4765625 C-167.0996875 520.97929688 -167.543125 521.48203125 -168 522 C-168.99 522 -169.98 522 -171 522 C-171.20455811 521.33395752 -171.40911621 520.66791504 -171.61987305 519.98168945 C-179.84690071 493.52142445 -190.12582036 464.20173436 -205.8671875 441.28125 C-207.45590379 438.08190408 -207.05119535 436.37350141 -206 433 C-204.28515625 430.53515625 -204.28515625 430.53515625 -202.0625 428.0625 C-162.26868019 381.27196462 -139.38031246 318.06487488 -119 261 C-144.74 261 -170.48 261 -197 261 C-197 233.94 -197 206.88 -197 179 C-165.32 179 -133.64 179 -101 179 C-101.33 156.23 -101.66 133.46 -102 110 C-108.785625 111.093125 -115.57125 112.18625 -122.5625 113.3125 C-148.63756763 117.47295718 -148.63756763 117.47295718 -159.625 118.9375 C-160.46619385 119.05327393 -161.3073877 119.16904785 -162.17407227 119.28833008 C-167.79984039 120.00556179 -173.33245955 120.11394661 -179 120 C-179.16491943 119.36835938 -179.32983887 118.73671875 -179.49975586 118.0859375 C-184.88588935 97.66680937 -191.26889159 77.73118133 -200.78515625 58.828125 C-202 56 -202 56 -202 52 C-195.80895328 50.57672629 -189.62570238 49.37193343 -183.359375 48.3359375 C-181.48411727 48.02017613 -179.60895849 47.70382668 -177.73388672 47.38696289 C-176.7586908 47.22245636 -175.78349487 47.05794983 -174.77874756 46.88845825 C-153.03738869 43.20268388 -131.47526946 39.00610718 -110 34 C-108.88455811 33.74120056 -108.88455811 33.74120056 -107.74658203 33.47717285 C-75.06231014 25.87654789 -41.98022458 17.14687265 -11.50488281 2.82763672 C-3.57762458 -0.89122321 -3.57762458 -0.89122321 0 0 Z " fill="#EC5CB5" transform="translate(312,110)"/>
<path d="M0 0 C3.98850475 1.05952015 7.20187828 2.8622166 10.68359375 5.00390625 C11.40764404 5.44057617 12.13169434 5.87724609 12.87768555 6.32714844 C15.36188531 7.83284966 17.83528786 9.355383 20.30859375 10.87890625 C21.23655762 11.44512695 22.16452148 12.01134766 23.12060547 12.59472656 C37.21162779 21.20082607 50.92996566 30.20281079 64.30859375 39.87890625 C65.5605957 40.78286133 65.5605957 40.78286133 66.83789062 41.70507812 C76.22243959 48.500786 85.46301971 55.39009695 94.30859375 62.87890625 C95.35110512 63.7479448 96.39409903 64.61640473 97.4375 65.484375 C125.12454242 88.60282925 125.12454242 88.60282925 131.30859375 97.87890625 C131.39093913 102.58082772 128.65991909 105.04398482 125.59912109 108.24462891 C124.96699707 108.88706543 124.33487305 109.52950195 123.68359375 110.19140625 C122.3910917 111.53826133 121.09941418 112.88590818 119.80859375 114.234375 C119.19371094 114.87165527 118.57882812 115.50893555 117.9453125 116.16552734 C116.1321622 118.06360145 114.39109454 120.01039908 112.68359375 122.00390625 C109.17310857 126.08174257 105.51009449 130.01315889 101.85327148 133.95922852 C98.79242916 137.2646707 95.75418358 140.58768312 92.74609375 143.94140625 C92.03839844 144.72257813 91.33070313 145.50375 90.6015625 146.30859375 C88.86730482 148.25261684 87.16990318 150.21377654 85.484375 152.19921875 C84.50928399 153.32176176 83.53402583 154.4441596 82.55859375 155.56640625 C82.11056396 156.1085376 81.66253418 156.65066895 81.20092773 157.20922852 C79.88671875 158.703125 79.88671875 158.703125 77.30859375 160.87890625 C73.80652674 161.04516058 72.6439009 160.18330682 70.0625 157.83984375 C69.33933594 156.98648438 68.61617187 156.133125 67.87109375 155.25390625 C67.08992187 154.34769531 66.30875 153.44148437 65.50390625 152.5078125 C64.22501726 150.97633155 62.94800775 149.44327006 61.67578125 147.90625 C58.50736843 144.10588599 55.14017367 140.88990225 51.3671875 137.6875 C49.30534868 135.87605527 47.40482663 133.97509256 45.49609375 132.00390625 C41.67834337 128.13426412 37.57712342 124.74679269 33.33984375 121.34765625 C30.64910617 119.1562308 28.02433421 116.91277204 25.40991211 114.63232422 C17.70962594 107.92629081 9.71891305 101.6722947 1.54589844 95.55419922 C0.0570707 94.43936553 -1.42927401 93.32120796 -2.91308594 92.19970703 C-19.21836651 79.8800827 -36.06407912 68.23402691 -53.69140625 57.87890625 C-53.23568924 53.14333857 -52.33882379 50.9143864 -48.90234375 47.63671875 C-48.12503906 46.88003906 -47.34773438 46.12335938 -46.546875 45.34375 C-45.72832031 44.57160156 -44.90976562 43.79945313 -44.06640625 43.00390625 C-42.46765045 41.46733868 -40.87126813 39.92829751 -39.27734375 38.38671875 C-38.10800293 37.2570166 -38.10800293 37.2570166 -36.91503906 36.10449219 C-34.2430314 33.43013757 -31.78328861 30.61653637 -29.32666016 27.74560547 C-26.75666248 24.81186372 -23.97967021 22.1031883 -21.19140625 19.37890625 C-17.57283082 15.80576955 -14.01770534 12.23041046 -10.69140625 8.37890625 C-10.16675781 7.77175781 -9.64210938 7.16460937 -9.1015625 6.5390625 C-7.76981106 4.97121108 -6.44900317 3.39408305 -5.12890625 1.81640625 C-2.69140625 -0.12109375 -2.69140625 -0.12109375 0 0 Z " fill="#E75BB2" transform="translate(468.69140625,105.12109375)"/>
</svg>