<?xml version="1.0" encoding="UTF-8"?>
<svg xmlns="http://www.w3.org/2000/svg" xmlns:xlink="http://www.w3.org/1999/xlink" width="192px" height="192px" viewBox="0 0 192 192" version="1.1">
<g id="surface1">
<path style=" stroke:none;fill-rule:nonzero;fill:rgb(92.54902%,36.078431%,70.980392%);fill-opacity:1;" d="M 142.171875 31.769531 C 144.183594 31.949219 146.148438 32.34375 148.128906 32.722656 C 148.503906 32.792969 148.882812 32.863281 149.257812 32.9375 C 150.242188 33.125 151.226562 33.3125 152.210938 33.5 C 153.21875 33.691406 154.222656 33.882812 155.230469 34.074219 C 157.203125 34.449219 159.171875 34.824219 161.144531 35.199219 C 160.910156 37.15625 160.910156 37.15625 160.722656 37.957031 C 160.683594 38.117188 160.648438 38.277344 160.609375 38.441406 C 160.570312 38.609375 160.53125 38.78125 160.488281 38.953125 C 160.425781 39.226562 160.425781 39.226562 160.359375 39.507812 C 160.214844 40.109375 160.074219 40.710938 159.929688 41.3125 C 159.878906 41.523438 159.828125 41.734375 159.777344 41.949219 C 157.5 51.453125 154.75 60.8125 151.671875 70.085938 C 151.617188 70.253906 151.558594 70.425781 151.5 70.597656 C 150.804688 72.6875 150.066406 74.75 149.257812 76.800781 C 149.410156 76.757812 149.5625 76.714844 149.722656 76.671875 C 150.417969 76.476562 151.117188 76.289062 151.8125 76.101562 C 152.054688 76.03125 152.296875 75.964844 152.546875 75.894531 C 152.777344 75.832031 153.011719 75.769531 153.253906 75.707031 C 153.46875 75.648438 153.679688 75.589844 153.902344 75.527344 C 154.589844 75.417969 155.003906 75.410156 155.65625 75.65625 C 155.980469 76.128906 155.980469 76.128906 156.238281 76.761719 C 156.335938 76.996094 156.433594 77.234375 156.535156 77.476562 C 156.636719 77.734375 156.738281 77.992188 156.84375 78.257812 C 156.953125 78.527344 157.0625 78.792969 157.171875 79.070312 C 157.511719 79.910156 157.84375 80.753906 158.171875 81.601562 C 158.269531 81.847656 158.367188 82.09375 158.464844 82.351562 C 162.800781 93.480469 166.152344 105.179688 167.769531 117.027344 C 167.796875 117.199219 167.820312 117.367188 167.84375 117.542969 C 167.960938 118.40625 168.027344 119.242188 168.015625 120.113281 C 168.011719 120.40625 168.011719 120.40625 168.007812 120.707031 C 168.003906 120.851562 168.003906 120.996094 168 121.144531 C 166.953125 121.609375 165.925781 121.996094 164.828125 122.324219 C 164.679688 122.371094 164.53125 122.414062 164.378906 122.460938 C 163.894531 122.605469 163.410156 122.75 162.925781 122.894531 C 162.585938 122.996094 162.25 123.097656 161.910156 123.199219 C 161.203125 123.410156 160.496094 123.621094 159.785156 123.832031 C 158.878906 124.101562 157.972656 124.375 157.066406 124.648438 C 156.371094 124.855469 155.671875 125.066406 154.972656 125.273438 C 154.636719 125.375 154.304688 125.472656 153.96875 125.574219 C 153.503906 125.714844 153.035156 125.851562 152.570312 125.992188 C 152.171875 126.109375 152.171875 126.109375 151.765625 126.230469 C 151.085938 126.398438 151.085938 126.398438 150.171875 126.398438 C 150.152344 126.203125 150.132812 126.007812 150.113281 125.804688 C 149.078125 115.511719 146.980469 105.480469 143.992188 95.582031 C 143.847656 95.109375 143.707031 94.632812 143.566406 94.160156 C 143.507812 93.949219 143.445312 93.742188 143.382812 93.527344 C 143.304688 93.257812 143.304688 93.257812 143.222656 92.980469 C 143.121094 92.570312 143.121094 92.570312 142.855469 92.34375 C 142.738281 92.589844 142.617188 92.839844 142.496094 93.09375 C 137.902344 102.628906 133.050781 111.917969 127.085938 120.6875 C 126.996094 120.816406 126.90625 120.949219 126.816406 121.085938 C 124.457031 124.578125 121.96875 127.976562 119.339844 131.269531 C 118.691406 132.097656 118.34375 132.554688 118.339844 133.601562 C 118.339844 133.914062 118.339844 133.914062 118.335938 134.234375 C 118.335938 134.460938 118.339844 134.683594 118.339844 134.917969 C 118.339844 135.269531 118.339844 135.269531 118.339844 135.628906 C 118.335938 136.125 118.339844 136.625 118.339844 137.121094 C 118.34375 137.875 118.339844 138.625 118.335938 139.375 C 118.117188 143.941406 118.117188 143.941406 119.542969 148.113281 C 121.261719 149.125 123.8125 148.835938 125.738281 148.839844 C 126.019531 148.839844 126.300781 148.839844 126.59375 148.839844 C 127.1875 148.84375 127.78125 148.84375 128.375 148.84375 C 129.285156 148.84375 130.191406 148.847656 131.101562 148.851562 C 131.679688 148.851562 132.257812 148.851562 132.835938 148.851562 C 133.109375 148.855469 133.378906 148.855469 133.65625 148.859375 C 134.988281 148.855469 136.117188 148.796875 137.371094 148.34375 C 137.597656 148.265625 137.824219 148.191406 138.058594 148.113281 C 138.308594 147.621094 138.308594 147.621094 138.515625 146.972656 C 138.625 146.691406 138.734375 146.410156 138.847656 146.125 C 141.089844 140.140625 140.527344 132.699219 140.800781 126.398438 C 141.832031 126.574219 142.421875 126.910156 143.285156 127.515625 C 146.984375 129.984375 151.101562 131.554688 155.335938 132.847656 C 155.910156 133.035156 156.46875 133.253906 157.027344 133.484375 C 157.101562 135.816406 156.878906 138.089844 156.628906 140.398438 C 156.609375 140.589844 156.585938 140.785156 156.566406 140.980469 C 154.679688 158.394531 154.679688 158.394531 148.53125 163.640625 C 144.246094 166.785156 139.140625 166.664062 134.066406 166.667969 C 133.636719 166.667969 133.210938 166.667969 132.78125 166.667969 C 131.886719 166.671875 130.992188 166.671875 130.09375 166.671875 C 129.1875 166.671875 128.28125 166.671875 127.375 166.675781 C 109.230469 166.738281 109.230469 166.738281 104.675781 162.335938 C 102.007812 159.3125 101.257812 155.617188 100.570312 151.769531 C 99.863281 151.769531 99.550781 152.195312 99.015625 152.644531 C 98.785156 152.832031 98.558594 153.023438 98.324219 153.21875 C 97.855469 153.609375 97.394531 154.003906 96.933594 154.40625 C 94.894531 156.164062 92.75 157.769531 90.589844 159.375 C 89.863281 159.917969 89.144531 160.472656 88.429688 161.027344 C 87.980469 161.371094 87.535156 161.714844 87.085938 162.058594 C 86.871094 162.222656 86.65625 162.390625 86.4375 162.558594 C 86.136719 162.785156 86.136719 162.785156 85.828125 163.015625 C 85.570312 163.210938 85.570312 163.210938 85.308594 163.410156 C 84.800781 163.65625 84.800781 163.65625 84.210938 163.640625 C 83.519531 163.375 83.3125 163.101562 82.886719 162.5 C 80.234375 159.003906 76.945312 155.671875 73.59375 152.84375 C 72.769531 152.136719 71.980469 151.394531 71.179688 150.660156 C 70.628906 150.148438 70.628906 150.148438 69.941406 149.714844 C 70.027344 149.171875 70.078125 148.878906 70.503906 148.515625 C 70.644531 148.4375 70.785156 148.355469 70.933594 148.273438 C 71.175781 148.132812 71.175781 148.132812 71.421875 147.988281 C 71.597656 147.886719 71.773438 147.789062 71.957031 147.6875 C 76.855469 144.804688 81.382812 141.3125 85.765625 137.703125 C 86.125 137.40625 86.492188 137.117188 86.855469 136.824219 C 88.382812 135.597656 89.824219 134.292969 91.25 132.953125 C 91.683594 132.546875 92.117188 132.144531 92.550781 131.742188 C 92.855469 131.460938 93.15625 131.179688 93.457031 130.898438 C 93.59375 130.769531 93.734375 130.644531 93.878906 130.511719 C 95.125 129.34375 96.371094 128.167969 97.484375 126.871094 C 98.285156 125.941406 98.285156 125.941406 98.671875 125.589844 C 99.792969 124.492188 100.070312 123.679688 100.097656 122.125 C 100.09375 121.742188 100.09375 121.742188 100.085938 121.351562 C 100.089844 121.078125 100.089844 120.800781 100.09375 120.519531 C 100.097656 119.757812 100.097656 119 100.089844 118.238281 C 100.085938 117.417969 100.089844 116.597656 100.097656 115.777344 C 100.101562 114.359375 100.101562 112.9375 100.097656 111.519531 C 100.089844 109.464844 100.09375 107.410156 100.097656 105.359375 C 100.105469 102.027344 100.109375 98.695312 100.105469 95.363281 C 100.101562 92.128906 100.101562 88.890625 100.105469 85.65625 C 100.105469 85.457031 100.105469 85.257812 100.105469 85.050781 C 100.105469 84.050781 100.109375 83.046875 100.109375 82.046875 C 100.121094 73.746094 100.121094 65.445312 100.113281 57.144531 C 106.074219 57.144531 112.03125 57.144531 118.171875 57.144531 C 118.246094 70.71875 118.324219 84.296875 118.398438 98.285156 C 129.316406 77.910156 136.695312 56.5625 141.550781 33.984375 C 141.601562 33.757812 141.648438 33.527344 141.699219 33.292969 C 141.742188 33.097656 141.785156 32.902344 141.828125 32.699219 C 141.941406 32.230469 141.941406 32.230469 142.171875 31.769531 Z M 142.171875 31.769531 "/>
<path style=" stroke:none;fill-rule:nonzero;fill:rgb(92.54902%,36.078431%,70.980392%);fill-opacity:1;" d="M 71.3125 25.144531 C 71.789062 25.597656 71.789062 25.597656 72.257812 26.230469 C 73.011719 27.207031 73.785156 28.128906 74.628906 29.027344 C 75.609375 30.082031 76.527344 31.171875 77.429688 32.292969 C 77.964844 32.9375 78.519531 33.554688 79.085938 34.171875 C 80.039062 35.207031 80.9375 36.273438 81.816406 37.367188 C 82.230469 37.875 82.660156 38.359375 83.101562 38.84375 C 83.65625 39.542969 83.65625 39.542969 83.65625 40.457031 C 80.296875 41.902344 76.921875 43.207031 73.441406 44.328125 C 73.203125 44.40625 73.203125 44.40625 72.960938 44.484375 C 70.675781 45.226562 68.394531 45.816406 66.058594 46.398438 C 66.058594 52.886719 66.058594 59.375 66.058594 66.058594 C 70.960938 66.058594 75.863281 66.058594 80.914062 66.058594 C 80.914062 72.242188 80.914062 78.425781 80.914062 84.800781 C 76.011719 84.800781 71.109375 84.800781 66.058594 84.800781 C 66.484375 85.867188 66.71875 86.226562 67.503906 86.988281 C 67.699219 87.183594 67.898438 87.378906 68.101562 87.578125 C 68.308594 87.777344 68.515625 87.980469 68.730469 88.1875 C 69.964844 89.390625 71.179688 90.585938 72.300781 91.898438 C 73.003906 92.707031 73.746094 93.480469 74.484375 94.257812 C 76.390625 96.273438 78.25 98.289062 79.96875 100.46875 C 80.46875 101.039062 80.996094 101.488281 81.601562 101.941406 C 81.609375 101.804688 81.617188 101.667969 81.628906 101.523438 C 81.765625 99.738281 82.0625 97.988281 82.367188 96.226562 C 82.988281 92.609375 83.457031 88.988281 83.84375 85.34375 C 83.878906 85.003906 83.878906 85.003906 83.914062 84.65625 C 84.136719 82.5625 84.355469 80.46875 84.515625 78.367188 C 84.570312 77.941406 84.570312 77.941406 84.800781 77.484375 C 86.554688 77.601562 88.199219 77.945312 89.902344 78.378906 C 90.160156 78.445312 90.421875 78.507812 90.6875 78.574219 C 91.234375 78.710938 91.777344 78.851562 92.324219 78.988281 C 93.160156 79.199219 94 79.410156 94.839844 79.621094 C 95.367188 79.753906 95.898438 79.886719 96.429688 80.019531 C 96.679688 80.085938 96.933594 80.148438 97.191406 80.210938 C 97.421875 80.269531 97.652344 80.332031 97.890625 80.390625 C 98.09375 80.441406 98.296875 80.492188 98.507812 80.546875 C 98.972656 80.6875 98.972656 80.6875 99.199219 80.914062 C 99.402344 83.234375 99.035156 85.632812 98.8125 87.941406 C 98.792969 88.15625 98.773438 88.371094 98.753906 88.59375 C 97.394531 102.851562 95.761719 118.582031 88.457031 131.199219 C 87.546875 131.058594 86.84375 130.773438 86.03125 130.34375 C 85.78125 130.214844 85.53125 130.085938 85.273438 129.953125 C 85.007812 129.8125 84.746094 129.671875 84.472656 129.527344 C 84.195312 129.382812 83.921875 129.238281 83.644531 129.09375 C 80.574219 127.484375 77.519531 125.84375 74.515625 124.113281 C 74.640625 122.761719 75.195312 121.671875 75.757812 120.457031 C 76.726562 118.296875 77.539062 116.113281 78.285156 113.871094 C 78.335938 113.726562 78.382812 113.582031 78.433594 113.433594 C 78.996094 111.75 79.480469 110.09375 79.769531 108.34375 C 78.242188 110.183594 76.714844 112.027344 75.242188 113.914062 C 75.042969 114.171875 74.839844 114.429688 74.636719 114.6875 C 74.347656 115.058594 74.054688 115.433594 73.765625 115.804688 C 73.488281 116.164062 73.207031 116.515625 72.929688 116.871094 C 72.769531 117.074219 72.613281 117.273438 72.449219 117.484375 C 71.980469 117.960938 71.742188 118.09375 71.085938 118.171875 C 70.988281 117.972656 70.890625 117.769531 70.789062 117.5625 C 69.363281 114.667969 67.828125 111.875 66.285156 109.027344 C 66.210938 128.488281 66.136719 147.949219 66.058594 168 C 60.171875 168 54.289062 168 48.230469 168 C 48.152344 150.878906 48.078125 133.753906 48 116.113281 C 46.867188 118.753906 45.738281 121.394531 44.570312 124.113281 C 43.675781 126.03125 42.777344 127.9375 41.828125 129.828125 C 41.707031 130.070312 41.585938 130.308594 41.460938 130.558594 C 39.230469 134.984375 36.796875 139.167969 33.871094 143.167969 C 33.648438 143.476562 33.433594 143.792969 33.222656 144.109375 C 33.121094 144.222656 33.019531 144.339844 32.914062 144.457031 C 32.6875 144.457031 32.460938 144.457031 32.230469 144.457031 C 32.183594 144.304688 32.136719 144.152344 32.085938 143.996094 C 30.207031 137.949219 27.855469 131.246094 24.257812 126.007812 C 23.894531 125.277344 23.988281 124.886719 24.230469 124.113281 C 24.621094 123.550781 24.621094 123.550781 25.128906 122.984375 C 34.222656 112.289062 39.457031 97.84375 44.113281 84.800781 C 38.230469 84.800781 32.347656 84.800781 26.285156 84.800781 C 26.285156 78.613281 26.285156 72.429688 26.285156 66.058594 C 33.527344 66.058594 40.769531 66.058594 48.230469 66.058594 C 48.152344 60.851562 48.078125 55.648438 48 50.285156 C 46.449219 50.535156 44.898438 50.785156 43.300781 51.042969 C 37.339844 51.992188 37.339844 51.992188 34.828125 52.328125 C 34.636719 52.355469 34.445312 52.382812 34.246094 52.410156 C 32.960938 52.574219 31.695312 52.597656 30.398438 52.570312 C 30.363281 52.425781 30.324219 52.28125 30.285156 52.132812 C 29.054688 47.464844 27.59375 42.910156 25.421875 38.589844 C 25.144531 37.941406 25.144531 37.941406 25.144531 37.027344 C 26.558594 36.703125 27.972656 36.429688 29.402344 36.191406 C 29.832031 36.117188 30.261719 36.046875 30.6875 35.972656 C 30.914062 35.9375 31.136719 35.898438 31.363281 35.859375 C 36.335938 35.019531 41.261719 34.058594 46.171875 32.914062 C 46.425781 32.855469 46.425781 32.855469 46.6875 32.792969 C 54.15625 31.058594 61.71875 29.0625 68.683594 25.789062 C 70.496094 24.9375 70.496094 24.9375 71.3125 25.144531 Z M 71.3125 25.144531 "/>
<path style=" stroke:none;fill-rule:nonzero;fill:rgb(90.588235%,35.686275%,69.803922%);fill-opacity:1;" d="M 107.128906 24.027344 C 108.042969 24.269531 108.777344 24.683594 109.570312 25.171875 C 109.738281 25.269531 109.902344 25.371094 110.074219 25.472656 C 110.640625 25.816406 111.207031 26.167969 111.769531 26.515625 C 111.984375 26.644531 112.195312 26.773438 112.414062 26.90625 C 115.636719 28.875 118.769531 30.929688 121.828125 33.144531 C 122.113281 33.347656 122.113281 33.347656 122.40625 33.558594 C 124.550781 35.113281 126.664062 36.6875 128.6875 38.398438 C 128.925781 38.597656 129.164062 38.796875 129.402344 38.996094 C 135.730469 44.28125 135.730469 44.28125 137.144531 46.398438 C 137.160156 47.476562 136.539062 48.039062 135.835938 48.769531 C 135.691406 48.917969 135.550781 49.0625 135.398438 49.214844 C 135.105469 49.523438 134.808594 49.832031 134.515625 50.136719 C 134.375 50.285156 134.234375 50.429688 134.089844 50.578125 C 133.675781 51.011719 133.277344 51.457031 132.886719 51.914062 C 132.082031 52.847656 131.246094 53.746094 130.410156 54.648438 C 129.710938 55.402344 129.015625 56.160156 128.328125 56.929688 C 128.167969 57.105469 128.003906 57.285156 127.839844 57.46875 C 127.441406 57.914062 127.054688 58.363281 126.667969 58.816406 C 126.445312 59.074219 126.222656 59.328125 126 59.585938 C 125.898438 59.710938 125.796875 59.832031 125.691406 59.960938 C 125.390625 60.300781 125.390625 60.300781 124.800781 60.800781 C 124 60.839844 123.734375 60.640625 123.144531 60.105469 C 122.976562 59.910156 122.8125 59.714844 122.644531 59.515625 C 122.464844 59.308594 122.285156 59.101562 122.101562 58.886719 C 121.808594 58.535156 121.519531 58.1875 121.226562 57.835938 C 120.503906 56.964844 119.734375 56.230469 118.871094 55.5 C 118.398438 55.085938 117.964844 54.652344 117.527344 54.199219 C 116.65625 53.316406 115.71875 52.542969 114.75 51.765625 C 114.136719 51.261719 113.535156 50.75 112.9375 50.230469 C 111.175781 48.695312 109.351562 47.265625 107.484375 45.867188 C 107.140625 45.613281 106.804688 45.359375 106.464844 45.101562 C 102.738281 42.285156 98.886719 39.625 94.855469 37.257812 C 94.960938 36.175781 95.167969 35.664062 95.953125 34.917969 C 96.128906 34.742188 96.308594 34.570312 96.488281 34.390625 C 96.675781 34.214844 96.863281 34.039062 97.058594 33.855469 C 97.421875 33.507812 97.789062 33.152344 98.152344 32.800781 C 98.417969 32.542969 98.417969 32.542969 98.691406 32.28125 C 99.300781 31.667969 99.863281 31.027344 100.425781 30.371094 C 101.011719 29.699219 101.648438 29.078125 102.285156 28.457031 C 103.113281 27.640625 103.925781 26.824219 104.6875 25.941406 C 104.804688 25.804688 104.925781 25.664062 105.050781 25.523438 C 105.351562 25.164062 105.65625 24.804688 105.957031 24.441406 C 106.515625 24 106.515625 24 107.128906 24.027344 Z M 107.128906 24.027344 "/>
</g>
</svg>
